/* XPM */
static char * cadavre_xpm[] = {
"48 48 553 2",
"  	c #5B4A91",
". 	c #5B4A90",
"+ 	c #5F4588",
"@ 	c #624180",
"# 	c #5D478C",
"$ 	c #5C498F",
"% 	c #5D478B",
"& 	c #68376C",
"* 	c #62417F",
"= 	c #5E468A",
"- 	c #63407E",
"; 	c #6E2850",
"> 	c #673971",
", 	c #614282",
"' 	c #5C488E",
") 	c #5F4486",
"! 	c #693468",
"~ 	c #5F4587",
"{ 	c #6F264C",
"] 	c #6B305F",
"^ 	c #68376D",
"/ 	c #624181",
"( 	c #5E478B",
"_ 	c #5D488E",
": 	c #604384",
"< 	c #6B3161",
"[ 	c #6E2A54",
"} 	c #6C2E5B",
"| 	c #663A74",
"1 	c #614384",
"2 	c #643E7A",
"3 	c #604486",
"4 	c #663A73",
"5 	c #5D488D",
"6 	c #6D2A55",
"7 	c #702143",
"8 	c #6E2851",
"9 	c #6E2953",
"0 	c #67386F",
"a 	c #5E4689",
"b 	c #653B76",
"c 	c #6E274F",
"d 	c #711F3E",
"e 	c #6F274E",
"f 	c #721C39",
"g 	c #614383",
"h 	c #5C4990",
"i 	c #5B4990",
"j 	c #653B75",
"k 	c #673970",
"l 	c #6F2448",
"m 	c #702347",
"n 	c #721C37",
"o 	c #711D3A",
"p 	c #5C498E",
"q 	c #8F7745",
"r 	c #8A6B3E",
"s 	c #876238",
"t 	c #8B6D3F",
"u 	c #88663B",
"v 	c #7F4B2B",
"w 	c #711F3D",
"x 	c #6F254A",
"y 	c #6F264B",
"z 	c #721A34",
"A 	c #633F7C",
"B 	c #643D79",
"C 	c #988B51",
"D 	c #917B48",
"E 	c #88653A",
"F 	c #8B6C3F",
"G 	c #845933",
"H 	c #711E3C",
"I 	c #702141",
"J 	c #653C77",
"K 	c #988A50",
"L 	c #988A51",
"M 	c #C6B19E",
"N 	c #C0A996",
"O 	c #AA8B7B",
"P 	c #966B5F",
"Q 	c #976D61",
"R 	c #621616",
"S 	c #5E1717",
"T 	c #5B1818",
"U 	c #4F1C1C",
"V 	c #6F254B",
"W 	c #6C2D5A",
"X 	c #6E2951",
"Y 	c #702243",
"Z 	c #998D52",
"` 	c #998C52",
" .	c #272323",
"..	c #232323",
"+.	c #252323",
"@.	c #3A2020",
"#.	c #A27F71",
"$.	c #864C43",
"%.	c #843422",
"&.	c #91482F",
"*.	c #A48273",
"=.	c #A68576",
"-.	c #B29685",
";.	c #917A47",
">.	c #97884F",
",.	c #96854D",
"'.	c #721830",
").	c #702346",
"!.	c #702448",
"~.	c #6F2449",
"{.	c #6E2952",
"].	c #693569",
"^.	c #95834C",
"/.	c #292222",
"(.	c #262323",
"_.	c #3E2020",
":.	c #A07C6E",
"<.	c #8C5A4F",
"[.	c #863925",
"}.	c #AE9080",
"|.	c #BAA18F",
"1.	c #BFA895",
"2.	c #BDA593",
"3.	c #8D7242",
"4.	c #927D49",
"5.	c #721B36",
"6.	c #6F264D",
"7.	c #6B3061",
"8.	c #96864E",
"9.	c #312222",
"0.	c #332121",
"a.	c #302222",
"b.	c #431F1F",
"c.	c #9B7467",
"d.	c #8E5D53",
"e.	c #8C412B",
"f.	c #954D32",
"g.	c #B49988",
"h.	c #BBA290",
"i.	c #BAA08F",
"j.	c #B89F8D",
"k.	c #89693D",
"l.	c #8C7041",
"m.	c #8E7444",
"n.	c #721C38",
"o.	c #6C2F5E",
"p.	c #C6B19D",
"q.	c #C2AC99",
"r.	c #C2AB98",
"s.	c #9C7668",
"t.	c #8A554B",
"u.	c #8C584E",
"v.	c #966C5F",
"w.	c #9C5739",
"x.	c #A25E3D",
"y.	c #A4613F",
"z.	c #A86542",
"A.	c #AD8F7F",
"B.	c #804E2D",
"C.	c #7B3A21",
"D.	c #804C2C",
"E.	c #866138",
"F.	c #876138",
"G.	c #721B35",
"H.	c #711D3B",
"I.	c #702345",
"J.	c #702142",
"K.	c #712040",
"L.	c #6B3060",
"M.	c #96854E",
"N.	c #95834D",
"O.	c #94814B",
"P.	c #978850",
"Q.	c #C8B3A0",
"R.	c #C1AA97",
"S.	c #A88879",
"T.	c #916257",
"U.	c #81301F",
"V.	c #802D1D",
"W.	c #93675B",
"X.	c #A07B6D",
"Y.	c #AC8E7E",
"Z.	c #A27E70",
"`.	c #6D2418",
" +	c #6F1E14",
".+	c #6B281B",
"++	c #825430",
"@+	c #855C35",
"#+	c #8D7141",
"$+	c #521B1B",
"%+	c #4E1C1C",
"&+	c #4D1C1C",
"*+	c #501C1C",
"=+	c #73182F",
"-+	c #95844D",
";+	c #937E49",
">+	c #C9B4A1",
",+	c #C7B29F",
"'+	c #BEA794",
")+	c #AE9181",
"!+	c #8E452D",
"~+	c #812F1F",
"{+	c #803D36",
"]+	c #7E3730",
"^+	c #A48173",
"/+	c #A98A7A",
"(+	c #682D1E",
"_+	c #6A2A1C",
":+	c #603724",
"<+	c #8A693D",
"[+	c #5F1717",
"}+	c #611616",
"|+	c #5C1818",
"1+	c #721932",
"2+	c #712041",
"3+	c #97874F",
"4+	c #AF9181",
"5+	c #854A41",
"6+	c #84473F",
"7+	c #762321",
"8+	c #78322F",
"9+	c #54432C",
"0+	c #593E29",
"a+	c #5A3E28",
"b+	c #52452D",
"c+	c #53432C",
"d+	c #5C3C27",
"e+	c #72472F",
"f+	c #72432C",
"g+	c #733825",
"h+	c #742A1C",
"i+	c #82423A",
"j+	c #8B574D",
"k+	c #621515",
"l+	c #73172E",
"m+	c #721933",
"n+	c #702244",
"o+	c #927E49",
"p+	c #93804A",
"q+	c #927C48",
"r+	c #907946",
"s+	c #907845",
"t+	c #A78677",
"u+	c #895249",
"v+	c #874F46",
"w+	c #94675B",
"x+	c #772928",
"y+	c #782F2D",
"z+	c #55422B",
"A+	c #51452D",
"B+	c #57402A",
"C+	c #4F462E",
"D+	c #714A31",
"E+	c #72422C",
"F+	c #723F2A",
"G+	c #733926",
"H+	c #926559",
"I+	c #671313",
"J+	c #661414",
"K+	c #6D2C59",
"L+	c #6A3263",
"M+	c #937F4A",
"N+	c #8A6A3D",
"O+	c #855D36",
"P+	c #7E4628",
"Q+	c #81522F",
"R+	c #8F5F54",
"S+	c #9D7669",
"T+	c #793633",
"U+	c #613623",
"V+	c #5D3B27",
"W+	c #593F29",
"X+	c #714E34",
"Y+	c #72412B",
"Z+	c #714D33",
"`+	c #B69C8B",
" @	c #571A1A",
".@	c #614283",
"+@	c #6E284F",
"@@	c #8F7645",
"#@	c #855E36",
"$@	c #7D4125",
"%@	c #79311C",
"&@	c #782D1A",
"*@	c #7B3921",
"=@	c #81502E",
"-@	c #876339",
";@	c #5E3A26",
">@	c #6E2523",
",@	c #6F2320",
"'@	c #6C2A27",
")@	c #6B2D2A",
"!@	c #742B1D",
"~@	c #733725",
"{@	c #72452E",
"]@	c #72402B",
"^@	c #72442D",
"/@	c #72462E",
"(@	c #733A26",
"_@	c #724830",
":@	c #70593C",
"<@	c #705539",
"[@	c #714C33",
"}@	c #6D2B56",
"|@	c #6D2B57",
"1@	c #865F37",
"2@	c #7D4326",
"3@	c #7B3820",
"4@	c #712217",
"5@	c #6A3624",
"6@	c #62452D",
"7@	c #5F4930",
"8@	c #6A2F2B",
"9@	c #6C2926",
"0@	c #6B2D29",
"a@	c #6E2A27",
"b@	c #6E2522",
"c@	c #6D2724",
"d@	c #5F3925",
"e@	c #733A27",
"f@	c #724930",
"g@	c #715136",
"h@	c #3F2F15",
"i@	c #4D2B13",
"j@	c #582611",
"k@	c #542812",
"l@	c #5B0D07",
"m@	c #650C08",
"n@	c #693467",
"o@	c #6C2D59",
"p@	c #7C3E23",
"q@	c #6C3120",
"r@	c #673D28",
"s@	c #64422B",
"t@	c #6A2E2B",
"u@	c #6B2C29",
"v@	c #6C2F2C",
"w@	c #69302D",
"x@	c #69302C",
"y@	c #50462E",
"z@	c #5A3D28",
"A@	c #723D28",
"B@	c #72452D",
"C@	c #705438",
"D@	c #422F15",
"E@	c #512913",
"F@	c #612010",
"G@	c #5E2210",
"H@	c #5E0C07",
"I@	c #660C08",
"J@	c #653D78",
"K@	c #653C76",
"L@	c #68376E",
"M@	c #89683C",
"N@	c #683A26",
"O@	c #693925",
"P@	c #6D2F1F",
"Q@	c #6B3422",
"R@	c #6D2825",
"S@	c #6E2623",
"T@	c #6D2B28",
"U@	c #69312D",
"V@	c #6A2F2C",
"W@	c #56412B",
"X@	c #733523",
"Y@	c #715236",
"Z@	c #671C0E",
"`@	c #661C0E",
" #	c #5F0C07",
".#	c #5C0D07",
"+#	c #6C2D5B",
"@#	c #68386E",
"##	c #6A3365",
"$#	c #702245",
"%#	c #927D48",
"&#	c #94824C",
"*#	c #68366C",
"=#	c #551A1A",
"-#	c #673B27",
";#	c #65402A",
">#	c #6B3322",
",#	c #6E2B1C",
"'#	c #4D482F",
")#	c #4A4A30",
"!#	c #4F472E",
"~#	c #715337",
"{#	c #641E0F",
"]#	c #6B170D",
"^#	c #6A190D",
"/#	c #5C2411",
"(#	c #4E2A13",
"_#	c #592511",
":#	c #680C08",
"<#	c #5D0C07",
"[#	c #590D07",
"}#	c #6B2F5F",
"|#	c #6B2F5E",
"1#	c #3F1F1F",
"2#	c #421F1F",
"3#	c #C4AF9C",
"4#	c #B89E8D",
"5#	c #6E2A1C",
"6#	c #6F2220",
"7#	c #705B3D",
"8#	c #6F6141",
"9#	c #6F5D3E",
"0#	c #572612",
"a#	c #6B180D",
"b#	c #70110C",
"c#	c #70120C",
"d#	c #720C0B",
"e#	c #6D100B",
"f#	c #64140C",
"g#	c #63150C",
"h#	c #610C07",
"i#	c #600C07",
"j#	c #570D06",
"k#	c #610C08",
"l#	c #6D2C57",
"m#	c #6B3162",
"n#	c #68366B",
"o#	c #6C2E5D",
"p#	c #63407D",
"q#	c #663B75",
"r#	c #6C2E5C",
"s#	c #382020",
"t#	c #C4AE9B",
"u#	c #C5B09D",
"v#	c #2C2222",
"w#	c #392020",
"x#	c #6E2724",
"y#	c #70583B",
"z#	c #6F5E3F",
"A#	c #705A3C",
"B#	c #552712",
"C#	c #671B0E",
"D#	c #6E140C",
"E#	c #6F130C",
"F#	c #720D0B",
"G#	c #700E0B",
"H#	c #6F0E0B",
"I#	c #6E0F0B",
"J#	c #6B0B09",
"K#	c #640C08",
"L#	c #663972",
"M#	c #69356A",
"N#	c #663B74",
"O#	c #62407F",
"P#	c #4C1D1D",
"Q#	c #BFA795",
"R#	c #C5AF9C",
"S#	c #C1AB98",
"T#	c #312121",
"U#	c #322121",
"V#	c #5D4C32",
"W#	c #70573A",
"X#	c #5D2311",
"Y#	c #710D0B",
"Z#	c #700D0B",
"`#	c #710B0A",
" $	c #670C08",
".$	c #691533",
"+$	c #673972",
"@$	c #591919",
"#$	c #541B1B",
"$$	c #BCA391",
"%$	c #C5B09C",
"&$	c #C7B29E",
"*$	c #372121",
"=$	c #705338",
"-$	c #472D14",
";$	c #68120C",
">$	c #6F0B09",
",$	c #700B09",
"'$	c #6D0B09",
")$	c #6C122B",
"!$	c #5F4689",
"~$	c #643E7B",
"{$	c #651414",
"]$	c #AC8D7D",
"^$	c #BFA896",
"/$	c #5E4A31",
"($	c #5E4B31",
"_$	c #705538",
":$	c #70593B",
"<$	c #432E14",
"[$	c #5E160D",
"}$	c #6B100B",
"|$	c #710F1F",
"1$	c #6F1025",
"2$	c #710E1E",
"3$	c #700F20",
"4$	c #700F21",
"5$	c #661313",
"6$	c #511B1B",
"7$	c #441E1E",
"8$	c #4B2256",
"9$	c #4E2153",
"0$	c #6A272F",
"a$	c #692831",
"b$	c #692932",
"c$	c #4E1B0E",
"d$	c #57190E",
"e$	c #62150C",
"f$	c #66130C",
"g$	c #69120C",
"h$	c #700F1F",
"i$	c #604385",
"j$	c #6E1126",
"k$	c #6F1023",
"l$	c #6F1024",
"m$	c #6C132D",
"n$	c #681635",
"o$	c #6F263F",
"p$	c #6E2A42",
"q$	c #6D2E44",
"r$	c #6D2F44",
"s$	c #6E2C43",
"t$	c #4D2254",
"u$	c #462459",
"v$	c #492357",
"w$	c #541A0E",
"x$	c #56190E",
"y$	c #59180D",
"z$	c #61150D",
"A$	c #6C100B",
"B$	c #6E1127",
"C$	c #691532",
"D$	c #63193D",
"E$	c #62193D",
"F$	c #6B132E",
"G$	c #71203B",
"H$	c #70253E",
"I$	c #6D2D43",
"J$	c #6E2B42",
"K$	c #53204F",
"L$	c #4A2356",
"M$	c #492356",
"N$	c #551A0E",
"O$	c #5C170D",
"P$	c #5D170D",
"Q$	c #62150D",
"R$	c #614281",
"S$	c #6E2A41",
"T$	c #571E4B",
"U$	c #671636",
"V$	c #6F2941",
"W$	c #4F2152",
"X$	c #502151",
"Y$	c #4F2153",
"Z$	c #541F4E",
"`$	c #62193E",
" %	c #6E1128",
"                                                                                                ",
".                                                                                               ",
"+                                                                                               ",
"@ #             $ %                                                                             ",
"& * $           = - .                                                                           ",
"; > , $   ' . . ) ! ~                                                                           ",
"{ ] ^ + $ / ( _ : < *                                                                           ",
"[ ; } | 1 2 ~ = 3 4 , 5 ~ 5                                                                     ",
"6 7 8 9 0 * a : = 3 a = b @                                                                     ",
"c d e f c 2 # g ( h i 5 j k 5                                                                   ",
"l m e n o b $ 5 p     ) 2 ! q r s t u v                                                         ",
"w x y z m A ' $       : B ^ C D s E F G                                                         ",
"H m x n I > J J 5 ' 5 5 K L M N O P Q Q R S T U                                                 ",
"z H V d d W X Y 2 C Z `  ...+.@.#.$.%.&.*.=.O -.;.          >.,.                                ",
"'.f ).!.~.6 {.H ].^.L ` /.(. ._.:.<.[.&.}.|.1.2.3.          4.4.                                ",
"5.H m {.c 6.; m 7.8.` C 9.0.a.b.c.d.e.f.g.h.i.j.k.          l.m.                                ",
"n.d l ; e H d w o.C ` L p.q.r.i.s.t.u.v.w.x.y.z.A.B.C.D.E.F.                                    ",
"G.H.I I.J.f n K.L.M.N.O.P.Z Q.R.S.T.U.V.W.Q X.Y.Z.`. +.+++@+r #+$+%+&+*+                        ",
"z n f w o H.=+I 6 P.-+;+N.L >+,+'+)+!+~+{+]+u.^+/+(+_+:+<+u r <+[+}+[+|+                        ",
"'.1+z 2+n.G.'.f 7 >.O.4.-+3+>.3+-+O.4+W.5+6+7+8+9+0+a+b+c+d+e+f+g+h+i+j+k+|+                    ",
"l+m+H n+2+x H.m+z M.8.o+4.p+q+r+3.s+t+u+v+w+x+y+z+A+B+z+C+z+D+E+F+G+H+H+I+J+                    ",
"Y K+L.L+6 [ H z z 3+M+N+O+@+D.P+Q+E :.R+u.S+T+T+d+:+U+V+0+W+X+E+Y+Z+`+g. @|+                    ",
"o.* g .@^ +@f n.d ^.@@#@$@%@&@*@=@-@;@d+>@,@'@)@:+!@~@{@]@^@/@F+(@_@:@<@[@e+                    ",
"L+= $ % A }@H m m |@y 7.1@2@*@3@4@5@6@7@8@9@9@0@a@b@c@'@d@(+e@e+f@g@h@i@j@k@l@m@m@              ",
"n@3 5 + 2 [ d ).n++@m o@q 1@v p@4@q@r@s@t@t@u@)@v@w@w@x@y@z@A@g+B@C@D@E@F@G@H@m@I@              ",
"! J@/ K@L@{ I o o H.d l -+4.M@G N@O@P@Q@9@u@R@S@T@x@U@V@A+W@{@X@A@Y@D@k@Z@`@ #.#H@              ",
"+#< @#^ ##x $#2+7 O.%#&#m *#(   b.b.=#[+-#;#>#,#c@'#)#!#~#e+{#]#^#/#(#_#:#:#<#[#H@              ",
"e ; }#4 W 7 I.}#|#I.m 9 ).|@1#2#N 3#2.4#1#b.N@5#6#7#8#9#0#a#b#c#d#e#f#g#h#i#j#l@k#              ",
"l#}@m#n#}#o#n#p#q#V x m H r#s#a.t#u#t#t#v#w#s@-#x#y#z#A#B#C#D#E#F#G#H#I#J#K#[#l@h#              ",
"J@L#4 M#N#O#~ @ N#; e 6.*+P#Q#R#S#S#t#t#T#U#V#7@'@~#W#W#i@X#I#F#Y#Y#Y#Z#`#`#J# $.$              ",
"= , A B / = : +$! ##n@|#@$#$$$M M %$M &$T#*$V#7@R@D+=$W#-$(#;$Y#Y#Y#Z#G#>$,$>$'$)$              ",
"$ !$g , B - N#N#> ~$/ k J+{$]$h.2.^$t#u#*$1#/$($u@_$y#:$<$<$[$}$I#I#G#Y#`#`#,$>$|$              ",
". _ !$- 6 L.##B * 1$2$3$4$|$j+w+5$}+6$7$8$9$0$a$b$9#z#9#c$c$d$e$f$g$H#Y#h$h$h$h$          #     ",
". # ( J G.6 < J .@i$5   j$k$|$l$m$n$n$n$o$p$q$r$s$t$u$v$w$x$y$z$A$Y#h$h$                  ~     ",
". _ ( ^ H o#< 2 ~ = .   h$h$h$B$C$D$E$F$G$H$I$q$J$K$L$M$N$O$P$Q$e#F#h$|$                        ",
"    + L.6.n@j R$5 $                             S$      t$K$K$T$U$3$3$h$                        ",
"    + l#|@B + #                                 V$      W$X$Y$Z$`$ %2$4$                        ",
"  $ + L+b a $                                                                                   ",
"$ + : A $                                                                                       ",
"_ : ~ = .                                                                                       ",
"p # ' $ .                                                                                       ",
"i                                                                                               ",
"                                                                                                ",
"                                                                                                ",
"                                                                                                ",
"                                                                                                ",
"                                                                                                ",
"                                                                                                "};
