/* XPM */
static char * ennemy_xpm[] = {
"48 48 10 1",
" 	c #5B4A91",
".	c #252525",
"+	c #414141",
"@	c #2D2524",
"#	c #4FD2FE",
"$	c #241D1D",
"%	c #413A3A",
"&	c #F65970",
"*	c #3F3232",
"=	c #382929",
"                                                ",
"                                                ",
"                                                ",
"                                                ",
"                                                ",
"                                                ",
"                                                ",
"                                                ",
"        ..           ...                        ",
"        ..           ...                        ",
"       .++..        .+++.                       ",
"       .++++..     .++++.                       ",
"       .++++..     .++++.                       ",
"       .++++........++++.                       ",
"       .++++........++++.                       ",
"       .++++++++++++++++.                       ",
"       @++++##+++++#++++.                       ",
"       @++++##+++++#++++.                       ",
"       @++++##+++++#++++@                       ",
"       @++++##+++++#++++@                       ",
"       $%%+++++&+++++%%%@                       ",
"        @@%%%%+++++%%@@@*.                      ",
"        @@%%%%+++++%%@@@*.                      ",
"          $$$$$$$$$$$***%+..                    ",
"          $$$$$$$$$$$***%+..                    ",
"            $$******%%%%++++..                  ",
"            $$******%%%%++++..                  ",
"            $$%%%%%%@+++++++++.                 ",
"              @%%%%@++++++++++@                 ",
"              @%%%%@++++++++++@                 ",
"               @%%%@%+++++++%%@                 ",
"               @%%%@%+++++++%%@                 ",
"               @%%%@@%%%++++%%@                 ",
"               @%%%@=@@@@%%%%%@@@..........     ",
"               @%%%@=@@@@%%%%%@@@..........     ",
"               @%%%@@*********@******%%%%%%@@   ",
"               @%%%@@*********@******%%%%%%@@   ",
"               @@@@@@@@@@@@@@@@$$$$$$$$$$$$     ",
"                                                ",
"                                                ",
"                                                ",
"                                                ",
"                                                ",
"                                                ",
"                                                ",
"                                                ",
"                                                ",
"                                                "};
