/* XPM */
static char * exit_xpm[] = {
"48 48 4 1",
" 	c #542E0E",
".	c #724721",
"+	c #462508",
"@	c #885E39",
"   ..........................................   ",
"   ..........................................   ",
"   ..........................................   ",
"   ..........................................   ",
"   ..........................................   ",
"   ..........................................   ",
"   ......                              ......   ",
"   ......                              ......   ",
"   ......                              ......   ",
"   ......   ........................   ......   ",
"   ......   ........................   ......   ",
"   ......   ........................   ......   ",
"   ......   ++++++++++++++++++++++++   ......   ",
"   ......   ++++++++++++++++++++++++   ......   ",
"   ......   ++++++++++++++++++++++++   ......   ",
"   ......   ........................   ......   ",
"   ......   ........................   ......   ",
"   ......   ........................   ......   ",
"   ......   ++++++++++++++++++++++++   ......   ",
"   ......   ++++++++++++++++++++++++   ......   ",
"   ......   ++++++++++++++++++++++++   ......   ",
"   ......   ........................   ......   ",
"   ......   ........................   ......   ",
"   ......   ........................   ......   ",
"   ......   ++++++++++++++++++++++++   ......   ",
"   ......   ++++++++++++++++++++++++   ......   ",
"   ......   ++++++++++++++++++++++++   ......   ",
"   ......   ........................   ......   ",
"   ......   ........................   ......   ",
"   ......   ........................   ......   ",
"   ......   ++++++++++++++++++++++++   ......   ",
"   ......   ++++++++++++++++++++++++   ......   ",
"   ......   ++++++++++++++++++++++++   ......   ",
"   ......   ........................   ......   ",
"   ......   ........................   ......   ",
"   ......   ........................   ......   ",
"   ......@@@@@@@@@@@@@@@@@@@@@@@@@@@@@@......   ",
"   ......@@@@@@@@@@@@@@@@@@@@@@@@@@@@@@......   ",
"   ......@@@@@@@@@@@@@@@@@@@@@@@@@@@@@@......   ",
"   ..........................................   ",
"   ..........................................   ",
"   ..........................................   ",
"   ..........................................   ",
"   ..........................................   ",
"   ..........................................   ",
"                                                ",
"                                                ",
"                                                "};
