/* XPM */
static char * player_walk2_xpm[] = {
"48 48 20 1",
" 	c #5B4A91",
".	c #6E371D",
"+	c #A56E4D",
"@	c #C5875F",
"#	c #54270C",
"$	c #E2BDA6",
"%	c #000000",
"&	c #B6B4BB",
"*	c #200E03",
"=	c #FFFFFF",
"-	c #840B0B",
";	c #C60505",
">	c #67625F",
",	c #908B89",
"'	c #7B7571",
")	c #9D870A",
"!	c #C4A705",
"~	c #201D1A",
"{	c #A2522C",
"]	c #CB6C3D",
"                                                ",
"                                                ",
"                                                ",
"                  ...........                   ",
"                ..++@@@@@@@++##                 ",
"               .+@$$$$$$$$$$$@+#                ",
"              .+@$$$$$$$$$$$$$@+#               ",
"             .+@$$$$$$$$$$$$$$$@+#              ",
"            .++$$$$$$$$$$$$$$$$$++#             ",
"            .+@$$$$$$$$$$$$$$$$$@+#             ",
"           .++@$$$$$$$$$$$$$$$$$@+.#            ",
"           .++@$$$$$$$$$$$$$$$$$@++#            ",
"           .++@$$$$$@@@@@@@$$$$$@++#            ",
"           .++@@$$$$$$$@$$$$$$$@@++#            ",
"        #  .++@@@$$$$@@@@@$$$$@@@++#  #         ",
"        ## .++.#+@$$$$$$$$$$$@+#.+.# ##         ",
"        #@...++@##++@$$$$$@++##@++###@#         ",
"        #@+.#++%@@##@@@+@@@##@@%++#.+@#         ",
"        #+$+#.%&%%%.#@+@+@#.%%%&%.#+$+#         ",
"         *$@#.%=&-;%.#@@@#.%;-&=%.#@$*          ",
"         *+@#.#==-;&%.+++.%&;-==#.#++*          ",
"          *.#.@##;=&#+#.#+#&=;##@.#.*           ",
"           **.@@@+++@.@@@.@+++@@@.**            ",
"            *.@@@@@$$+$@$+$$@@@@@.*             ",
"             *+@$$$$@$@@@$@$$$$@+*              ",
"             *.+@$$+=;=;=;=+$$@+.*              ",
"          >   *.+@@+;=;=;=;+@@+.*               ",
"         >,    **.+@@@@@@@@@+.**    >           ",
"         >'',.###**..+++++..**###   ,>          ",
"          >..#.*+..*********..+##.,''>          ",
"         *.##**+.+@@@@+++@@@@++*.#..>           ",
"          ***++..+@$@@@+@@@$@+#$**##.*          ",
"          #+++.*.+@@@@@+@@@@@+.#+@***           ",
"         #.++.* #++@@@@+@@@@++#*@@@+#           ",
"         #....* #++++++@++++++*@+$@+#           ",
"         #..#.* #.@+@@+++@@+@.*+.+@+#           ",
"         #..**   #+@++@+@++@+#*.#@@+#           ",
"          ***    )))!!))+@@@+#***++#            ",
"                )##.###.)!!)))  ***             ",
"                .#.#.#.#.#.#.#)                 ",
"               . .#.$.+.~.+... .                ",
"                  #+$$+.#####                   ",
"                  ######*..#*                   ",
"                  #.{{.#*..*                    ",
"                  #{]]{#                        ",
"                                                ",
"                                                ",
"                                                "};
