/* XPM */
static char * wall_xpm[] = {
"48 48 6 1",
" 	c #1B0F3E",
".	c #080946",
"+	c #253958",
"@	c #34496A",
"#	c #4B5F80",
"$	c #121454",
"         ............   .........               ",
"         ............   .........               ",
"         ............   .........               ",
"   ......+++@@@+++@@@...++++++.........      ...",
"   ......+++@@@+++@@@...++++++.........      ...",
"   ......+++@@@+++@@@...++++++.........      ...",
"...+++...+++@@@++++++.........++++++.........+++",
"...+++...+++@@@++++++.........++++++.........+++",
"...+++...+++@@@++++++.........++++++.........+++",
"+++...@@@@@@@@@@@@@@@...@@@@@@@@@@@@...+++...@@@",
"+++...@@@@@@@@@@@@@@@...@@@@@@@@@@@@...+++...@@@",
"+++...@@@@@@@@@@@@@@@...@@@@@@@@@@@@...+++...@@@",
"@@@@@@......@@@@@@@@@...@@@...@@@@@@......@@@@@@",
"@@@@@@......@@@@@@@@@...@@@...@@@@@@......@@@@@@",
"@@@@@@......@@@@@@@@@...@@@...@@@@@@......@@@@@@",
"@@@@@@@@@###...#########...#########...+++...###",
"@@@@@@@@@###...#########...#########...+++...###",
"@@@@@@@@@###...#########...#########...+++...###",
"#########@@@......@@@...+++...###...###@@@+++...",
"#########@@@......@@@...+++...###...###@@@+++...",
"#########@@@......@@@...+++...###...###@@@+++...",
"............@@@@@@...+++###@@@............###+++",
"............@@@@@@...+++###@@@............###+++",
"............@@@@@@...+++###@@@............###+++",
"...++++++...@@@...+++###@@@@@@...@@@+++@@@......",
"...++++++...@@@...+++###@@@@@@...@@@+++@@@......",
"...++++++...@@@...+++###@@@@@@...@@@+++@@@......",
"++++++++++++...++++++...###...++++++@@@+++++++++",
"++++++++++++...++++++...###...++++++@@@+++++++++",
"++++++++++++...++++++...###...++++++@@@+++++++++",
"...@@@@@@...@@@@@@@@@......@@@@@@@@@@@@...@@@@@@",
"...@@@@@@...@@@@@@@@@......@@@@@@@@@@@@...@@@@@@",
"...@@@@@@...@@@@@@@@@......@@@@@@@@@@@@...@@@@@@",
"...@@@@@@...@@@@@@@@@...###...@@@@@@...@@@...@@@",
"...@@@@@@...@@@@@@@@@...###...@@@@@@...@@@...@@@",
"...@@@@@@...@@@@@@@@@...###...@@@@@@...@@@...@@@",
"...@@@###...#########.........###...###@@@###@@@",
"...@@@###...#########.........###...###@@@###@@@",
"...@@@###...#########.........###...###@@@###@@@",
"...######......###@@@...$$$$$$......###@@@######",
"...######......###@@@...$$$$$$......###@@@######",
"...######......###@@@...$$$$$$......###@@@######",
"$$$...###...$$$......$$$$$$$$$$$$$$$............",
"$$$...###...$$$......$$$$$$$$$$$$$$$............",
"$$$...###...$$$......$$$$$$$$$$$$$$$............",
"$$$$$$...$$$$$$$$$$$$$$$$$$$$$$$$$$$$$$$$$$$$$$$",
"$$$$$$...$$$$$$$$$$$$$$$$$$$$$$$$$$$$$$$$$$$$$$$",
"$$$$$$...$$$$$$$$$$$$$$$$$$$$$$$$$$$$$$$$$$$$$$$"};
